<?xml version="1.0" encoding="UTF-8" standalone="no" ?>
<!DOCTYPE svg PUBLIC "-//W3C//DTD SVG 1.1//EN" "http://www.w3.org/Graphics/SVG/1.1/DTD/svg11.dtd">
<svg xmlns="http://www.w3.org/2000/svg" xmlns:xlink="http://www.w3.org/1999/xlink" version="1.1" width="1080" height="1080" viewBox="0 0 1080 1080" xml:space="preserve">
<desc>Created with Fabric.js 5.2.4</desc>
<defs>
</defs>
<g transform="matrix(1 0 0 1 540 540)" id="68469ab6-934e-40b0-922e-dae91a621a44"  >
</g>
<g transform="matrix(1 0 0 1 540 540)" id="5a817a4d-504a-4e38-b8e1-ad75bef9bcaa"  >
<rect style="stroke: none; stroke-width: 1; stroke-dasharray: none; stroke-linecap: butt; stroke-dashoffset: 0; stroke-linejoin: miter; stroke-miterlimit: 4; fill: rgb(255,255,255); fill-rule: nonzero; opacity: 1; visibility: hidden;" vector-effect="non-scaling-stroke"  x="-540" y="-540" rx="0" ry="0" width="1080" height="1080" />
</g>
<g transform="matrix(1.64 0 0 1.64 540 540)"  >
<path style="stroke: none; stroke-width: 1; stroke-dasharray: none; stroke-linecap: butt; stroke-dashoffset: 0; stroke-linejoin: miter; stroke-miterlimit: 4; fill: rgb(1,1,1); fill-rule: nonzero; opacity: 1;" vector-effect="non-scaling-stroke"  transform=" translate(-332.49, -335.05)" d="M 459.362122 69.676674 C 500.765411 80.165138 542.331848 87.494804 584.975647 92.257431 C 584.975647 94.105377 584.975464 95.88047 584.975647 97.655556 C 584.984436 191.144928 584.854187 284.634613 585.066589 378.123535 C 585.158936 418.740509 573.585266 455.684662 551.832458 489.68454 C 527.995117 526.942688 496.296387 556.345581 460.056641 581.146667 C 423.885681 605.900696 384.727203 625.073914 344.986572 643.291626 C 335.611237 647.589417 328.297913 647.288086 319.189178 643.108398 C 277.344635 623.907715 235.878067 604.08905 198.295532 577.148254 C 161.896622 551.05603 130.338394 520.330933 107.77813 481.160004 C 94.154472 457.505493 84.773163 432.240143 81.270294 405.182343 C 79.613281 392.382751 80.004173 379.27887 79.989067 366.312225 C 79.883858 275.989349 79.915527 185.66629 79.903343 95.3433 C 79.903214 94.374306 79.90332 93.405312 79.90332 92.433701 C 126.351822 86.277977 172.070114 78.257912 216.962036 65.994095 C 255.064667 55.585022 291.74527 41.403179 327.394562 24.439423 C 329.496765 23.439096 332.949249 23.497631 335.048401 24.5331 C 374.712433 44.098412 416.231354 58.4893 459.362122 69.676674 M 143.941132 483.586029 C 163.956268 511.830688 188.906509 535.031799 217.018616 554.981201 C 252.132812 579.899475 290.819092 598.168762 330.044983 615.394592 C 331.658844 616.103333 334.19162 615.852051 335.875458 615.102661 C 374.073212 598.101746 411.257507 579.25116 445.644775 555.224976 C 479.610809 531.493225 509.389587 503.735291 530.704895 467.764099 C 545.122253 443.433685 554.665344 417.313629 554.851318 388.845642 C 555.329285 315.703735 555.06958 242.557022 555.101318 169.412231 C 555.108582 152.772537 555.102356 136.132828 555.102356 119.157272 C 551.904236 118.681999 549.003174 118.313232 546.124817 117.81366 C 509.930145 111.531807 473.97406 104.15934 438.644043 93.986923 C 403.270325 83.801903 368.496918 71.952385 335.239258 56.014809 C 332.138733 54.528988 329.740936 55.289223 326.905304 56.564575 C 267.719757 83.183807 205.757355 100.747414 142.17868 112.998764 C 131.510544 115.054482 120.819916 116.99353 109.892128 119.032684 C 109.892128 120.46508 109.892014 121.614922 109.892143 122.764755 C 109.901993 206.409576 109.827553 290.054596 110.020416 373.699005 C 110.046761 385.122528 110.412796 396.714233 112.346054 407.930847 C 117.046219 435.200989 127.669411 460.248657 143.941132 483.586029 z" stroke-linecap="round" />
</g>
<g transform="matrix(1.64 0 0 1.64 540.09 553.44)"  >
<path style="stroke: none; stroke-width: 1; stroke-dasharray: none; stroke-linecap: butt; stroke-dashoffset: 0; stroke-linejoin: miter; stroke-miterlimit: 4; fill: rgb(1,1,1); fill-rule: nonzero; opacity: 1;" vector-effect="non-scaling-stroke"  transform=" translate(-332.54, -343.25)" d="M 308.776947 362.813171 C 301.822418 370.639404 300.455566 379.795074 300.475708 389.444427 C 300.532745 416.759399 300.495697 444.074585 300.495697 471.744019 C 260.17923 471.744019 219.947861 471.744019 179.347809 471.744019 C 179.347809 419.431824 179.347809 366.914551 179.347809 314.000427 C 210.478973 314.000427 241.54628 314.000427 272.939056 314.000427 C 272.939056 280.839081 272.939056 248.070923 272.939056 214.758987 C 312.924164 214.758987 352.583801 214.758987 392.668152 214.758987 C 392.668152 247.733795 392.668152 280.630676 392.668152 313.844055 C 423.852722 313.844055 454.618073 313.844055 485.738037 313.844055 C 485.738037 366.556824 485.738037 418.952515 485.738037 471.722443 C 446.180664 471.722443 406.466888 471.722443 366.154541 471.722443 C 366.154541 469.659546 366.157227 467.556488 366.154144 465.4534 C 366.114929 438.627838 366.230927 411.800751 365.967346 384.977386 C 365.841278 372.149445 359.589417 362.492279 348.259003 356.701965 C 336.885162 350.889496 325.342133 351.212677 314.320984 358.066101 C 312.376648 359.275208 310.775909 361.036865 308.776947 362.813171 M 346.146942 253.775879 C 345.647552 245.207535 341.601135 240.526337 334.229828 239.989258 C 323.151367 239.182068 318.497345 242.055756 316.611206 251.327911 C 315.989349 254.385071 316.071991 257.610321 316.05069 260.760193 C 315.985748 270.362152 316.02713 279.964813 316.02713 289.568542 C 326.452667 289.568542 336.172211 289.568542 346.199982 289.568542 C 346.199982 277.690399 346.199982 266.202332 346.146942 253.775879 M 420.947815 368.735199 C 420.947815 378.684448 420.947815 388.633698 420.947815 398.717163 C 431.000732 398.717163 440.728271 398.717163 450.043182 398.717163 C 450.043182 387.675354 450.595795 376.888367 449.873291 366.1875 C 449.264313 357.167511 442.826874 352.474579 433.962128 353.000366 C 426.548035 353.440125 421.387787 359.326569 420.947815 368.735199 M 213.914429 377.508698 C 213.914429 384.596954 213.914429 391.685181 213.914429 398.794312 C 224.155243 398.794312 233.756058 398.794312 243.071808 398.794312 C 243.071808 387.796722 243.333496 376.997131 242.988297 366.21701 C 242.716415 357.726654 236.912369 352.854279 228.265167 353.000854 C 220.130997 353.138733 214.212173 358.939087 214.006668 367.030823 C 213.926422 370.190552 213.95517 373.352997 213.914429 377.508698 z" stroke-linecap="round" />
</g>
<g transform="matrix(1.64 0 0 1.64 537.5 271.79)"  >
<path style="stroke: none; stroke-width: 1; stroke-dasharray: none; stroke-linecap: butt; stroke-dashoffset: 0; stroke-linejoin: miter; stroke-miterlimit: 4; fill: rgb(1,1,1); fill-rule: nonzero; opacity: 1;" vector-effect="non-scaling-stroke"  transform=" translate(-330.96, -171.45)" d="M 251.153961 174.999924 C 251.154434 163.861923 251.154434 153.223969 251.154434 142.283722 C 261.758179 142.283722 272.162048 142.283722 282.912079 142.283722 C 282.912079 152.296143 282.912079 162.359482 282.912079 172.719543 C 293.98465 172.719543 304.71875 172.719543 315.849182 172.719543 C 315.849182 162.668167 315.849182 152.5923 315.849182 142.257019 C 326.473755 142.257019 336.707245 142.257019 347.33371 142.257019 C 347.33371 152.411957 347.33371 162.477905 347.33371 172.767822 C 357.806824 172.767822 367.889709 172.767822 378.326874 172.767822 C 378.326874 162.530334 378.326874 152.458038 378.326874 142.190018 C 389.278839 142.190018 399.879272 142.190018 410.761536 142.190018 C 410.761536 161.604401 410.761536 181.002487 410.761536 200.705978 C 357.758545 200.705978 304.697754 200.705978 251.153488 200.705978 C 251.153488 192.361969 251.153488 183.930969 251.153961 174.999924 z" stroke-linecap="round" />
</g>
<g transform="matrix(1.64 0 0 1.64 331.51 440.79)"  >
<path style="stroke: none; stroke-width: 1; stroke-dasharray: none; stroke-linecap: butt; stroke-dashoffset: 0; stroke-linejoin: miter; stroke-miterlimit: 4; fill: rgb(2,2,2); fill-rule: nonzero; opacity: 1;" vector-effect="non-scaling-stroke"  transform=" translate(-205.31, -274.54)" d="M 217.381409 270.965424 C 217.37915 262.190613 217.37915 253.91185 217.37915 245.312408 C 227.652069 245.312408 237.542755 245.312408 247.732513 245.312408 C 247.732513 264.588318 247.732513 283.960541 247.732513 303.736359 C 233.621704 303.736359 219.532944 303.801392 205.44516 303.71167 C 197.143967 303.658813 188.834091 303.556335 180.546555 303.123322 C 170.105606 302.57785 163.577805 294.281494 163.149124 283.720825 C 162.636902 271.10202 163.028305 258.446503 163.028305 245.394684 C 172.928528 245.394684 182.652206 245.394684 192.798813 245.394684 C 192.798813 254.801758 192.798813 264.52951 192.798813 274.973053 C 200.770035 274.973053 208.345383 275.042419 215.912292 274.822052 C 216.434937 274.806854 216.894684 272.632019 217.381409 270.965424 z" stroke-linecap="round" />
</g>
<g transform="matrix(1.64 0 0 1.64 748.42 440.81)"  >
<path style="stroke: none; stroke-width: 1; stroke-dasharray: none; stroke-linecap: butt; stroke-dashoffset: 0; stroke-linejoin: miter; stroke-miterlimit: 4; fill: rgb(2,2,2); fill-rule: nonzero; opacity: 1;" vector-effect="non-scaling-stroke"  transform=" translate(-459.62, -274.55)" d="M 502.011597 284.745422 C 501.788116 294.844879 495.73819 302.203979 486.172974 303.006836 C 476.576569 303.812317 466.892883 303.678528 457.24588 303.756592 C 443.976929 303.864014 430.706482 303.783508 417.214783 303.783508 C 417.214783 284.073242 417.214783 264.835602 417.214783 245.283615 C 427.130585 245.283615 436.845856 245.283615 447.03302 245.283615 C 447.03302 255.129822 447.03302 264.864319 447.03302 274.791321 C 455.433899 274.791321 463.368713 274.791321 471.674988 274.791321 C 471.674988 265.068787 471.674988 255.332153 471.674988 245.29068 C 481.788544 245.29068 491.542389 245.29068 502.016418 245.29068 C 502.016418 258.139252 502.016418 271.209076 502.011597 284.745422 z" stroke-linecap="round" />
</g>
</svg>